<?xml version="1.0" encoding="UTF-8" standalone="no"?>
<!DOCTYPE svg PUBLIC "-//W3C//DTD SVG 1.1//EN"
 "http://www.w3.org/Graphics/SVG/1.1/DTD/svg11.dtd">
<!-- Generated by graphviz version 3.0.0 (20220226.1711)
 -->
<!-- Title: snakemake_dag Pages: 1 -->
<svg width="165pt" height="260pt"
 viewBox="0.00 0.00 165.00 260.00" xmlns="http://www.w3.org/2000/svg" xmlns:xlink="http://www.w3.org/1999/xlink">
<g id="graph0" class="graph" transform="scale(1 1) rotate(0) translate(4 256)">
<title>snakemake_dag</title>
<polygon fill="white" stroke="transparent" points="-4,4 -4,-256 161,-256 161,4 -4,4"/>
<!-- 0 -->
<g id="node1" class="node">
<title>0</title>
<path fill="none" stroke="#d8a456" stroke-width="2" stroke-dasharray="5,2" d="M104,-36C104,-36 53,-36 53,-36 47,-36 41,-30 41,-24 41,-24 41,-12 41,-12 41,-6 47,0 53,0 53,0 104,0 104,0 110,0 116,-6 116,-12 116,-12 116,-24 116,-24 116,-30 110,-36 104,-36"/>
<text text-anchor="middle" x="78.5" y="-15.5" font-family="sans" font-size="10.00">combineMSA</text>
</g>
<!-- 1 -->
<g id="node2" class="node">
<title>1</title>
<path fill="none" stroke="#56d8c9" stroke-width="2" stroke-dasharray="5,2" d="M124.5,-108C124.5,-108 32.5,-108 32.5,-108 26.5,-108 20.5,-102 20.5,-96 20.5,-96 20.5,-84 20.5,-84 20.5,-78 26.5,-72 32.5,-72 32.5,-72 124.5,-72 124.5,-72 130.5,-72 136.5,-78 136.5,-84 136.5,-84 136.5,-96 136.5,-96 136.5,-102 130.5,-108 124.5,-108"/>
<text text-anchor="middle" x="78.5" y="-87.5" font-family="sans" font-size="10.00">convertMSA_toFASTA</text>
</g>
<!-- 1&#45;&gt;0 -->
<g id="edge1" class="edge">
<title>1&#45;&gt;0</title>
<path fill="none" stroke="grey" stroke-width="2" d="M78.5,-71.7C78.5,-63.98 78.5,-54.71 78.5,-46.11"/>
<polygon fill="grey" stroke="grey" stroke-width="2" points="82,-46.1 78.5,-36.1 75,-46.1 82,-46.1"/>
</g>
<!-- 2 -->
<g id="node3" class="node">
<title>2</title>
<path fill="none" stroke="#56a2d8" stroke-width="2" stroke-dasharray="5,2" d="M100.5,-180C100.5,-180 56.5,-180 56.5,-180 50.5,-180 44.5,-174 44.5,-168 44.5,-168 44.5,-156 44.5,-156 44.5,-150 50.5,-144 56.5,-144 56.5,-144 100.5,-144 100.5,-144 106.5,-144 112.5,-150 112.5,-156 112.5,-156 112.5,-168 112.5,-168 112.5,-174 106.5,-180 100.5,-180"/>
<text text-anchor="middle" x="78.5" y="-165" font-family="sans" font-size="10.00">runHMMER</text>
<text text-anchor="middle" x="78.5" y="-154" font-family="sans" font-size="10.00">gene: cysK</text>
</g>
<!-- 2&#45;&gt;1 -->
<g id="edge2" class="edge">
<title>2&#45;&gt;1</title>
<path fill="none" stroke="grey" stroke-width="2" d="M78.5,-143.7C78.5,-135.98 78.5,-126.71 78.5,-118.11"/>
<polygon fill="grey" stroke="grey" stroke-width="2" points="82,-118.1 78.5,-108.1 75,-118.1 82,-118.1"/>
</g>
<!-- 3 -->
<g id="node4" class="node">
<title>3</title>
<path fill="none" stroke="#c6d856" stroke-width="2" stroke-dasharray="5,2" d="M145,-252C145,-252 12,-252 12,-252 6,-252 0,-246 0,-240 0,-240 0,-228 0,-228 0,-222 6,-216 12,-216 12,-216 145,-216 145,-216 151,-216 157,-222 157,-228 157,-228 157,-240 157,-240 157,-246 151,-252 145,-252"/>
<text text-anchor="middle" x="78.5" y="-237" font-family="sans" font-size="10.00">runProdigal</text>
<text text-anchor="middle" x="78.5" y="-226" font-family="sans" font-size="10.00">strain: Akkermansia_muciniphila</text>
</g>
<!-- 3&#45;&gt;2 -->
<g id="edge3" class="edge">
<title>3&#45;&gt;2</title>
<path fill="none" stroke="grey" stroke-width="2" d="M78.5,-215.7C78.5,-207.98 78.5,-198.71 78.5,-190.11"/>
<polygon fill="grey" stroke="grey" stroke-width="2" points="82,-190.1 78.5,-180.1 75,-190.1 82,-190.1"/>
</g>
</g>
</svg>
